<svg width="85" height="75" viewBox="0 0 85 75" fill="none" xmlns="http://www.w3.org/2000/svg">
<path id="Github" d="M42.7062 0.00240291C19.6002 0.00240291 0.880615 17.2243 0.880615 38.4495C0.880615 55.4455 12.8636 69.8511 29.471 74.9333C31.5701 75.2962 32.3282 74.1067 32.3282 73.0783C32.3282 72.1652 32.3047 69.7502 32.289 66.5447C20.6484 68.8611 18.1964 61.3759 18.1964 61.3759C16.2907 56.9449 13.5407 55.7555 13.5407 55.7555C9.75547 53.379 13.8413 53.4294 13.8413 53.4294C18.0343 53.6913 20.2406 57.3823 20.2406 57.3823C23.9709 63.2647 30.0278 61.5634 32.4249 60.5734C32.7909 58.0959 33.881 56.3922 35.0678 55.4431C25.7825 54.4795 16.0188 51.1755 16.0188 36.443C16.0188 32.2355 17.6396 28.8089 20.319 26.1176C19.8563 25.154 18.4395 21.2372 20.6876 15.9411C20.6876 15.9411 24.1879 14.9151 32.1896 19.8843C35.5383 19.0313 39.0935 18.606 42.646 18.5844C46.2012 18.606 49.7538 19.0337 53.1024 19.8843C61.0571 14.9151 64.5548 15.9411 64.5548 15.9411C66.8003 21.2372 65.3834 25.1516 64.9756 26.1176C67.6289 28.8089 69.2497 32.2379 69.2497 36.443C69.2497 51.2091 59.473 54.4651 50.1772 55.4046C51.6307 56.5556 52.9926 58.9225 52.9926 62.5149C52.9926 67.6572 52.9403 71.7999 52.9403 73.0518C52.9403 74.0515 53.6723 75.2529 55.8263 74.8661C72.5565 69.8367 84.5265 55.4191 84.5265 38.4471C84.5265 17.2219 65.8069 0 42.7009 0L42.7062 0.00240291Z" fill="#FFFEFE"/>
</svg>
