<svg width="84" height="75" viewBox="0 0 84 75" fill="none" xmlns="http://www.w3.org/2000/svg">
<path id="Linkedin" d="M41.9855 0C47.7817 0 53.2115 0.985663 58.2749 2.95699C63.3383 4.92832 67.7688 7.60155 71.5663 10.9767C75.3639 14.3519 78.3619 18.3094 80.5605 22.8495C82.7591 27.3895 83.8584 32.2581 83.8584 37.4552C83.8584 42.6523 82.7591 47.5209 80.5605 52.0609C78.3619 56.601 75.3639 60.5735 71.5663 63.9785C67.7688 67.3835 63.3383 70.0717 58.2749 72.043C53.2115 74.0143 47.7817 75 41.9855 75C36.1892 75 30.7594 74.0143 25.696 72.043C20.6326 70.0717 16.2188 67.3835 12.4546 63.9785C8.69037 60.5735 5.70897 56.601 3.51039 52.0609C1.31181 47.5209 0.212524 42.6523 0.212524 37.4552C0.212524 32.2581 1.31181 27.3895 3.51039 22.8495C5.70897 18.3094 8.69037 14.3519 12.4546 10.9767C16.2188 7.60155 20.6326 4.92832 25.696 2.95699C30.7594 0.985663 36.1892 0 41.9855 0ZM28.9939 28.1362H18.5007V58.6022H28.9939V28.1362ZM23.6973 25.7168C25.163 25.7168 26.4122 25.2688 27.4449 24.3728C28.4776 23.4767 28.9939 22.3716 28.9939 21.0573C28.9939 19.7431 28.4776 18.638 27.4449 17.7419C26.4122 16.8459 25.163 16.3978 23.6973 16.3978C22.2316 16.3978 20.9991 16.8459 19.9997 17.7419C19.0004 18.638 18.5007 19.7431 18.5007 21.0573C18.5007 22.3716 19.0004 23.4767 19.9997 24.3728C20.9991 25.2688 22.2316 25.7168 23.6973 25.7168ZM65.5702 40.9498C65.5702 38.7993 64.904 36.6935 63.5715 34.6326C62.239 32.5717 60.5068 31.0036 58.3749 29.9283C56.4428 28.9725 54.1942 28.4648 51.6292 28.405C49.0642 28.3453 46.7157 28.7336 44.5838 29.5699V28.1362H34.1905V58.6022H44.5838V39.9642L48.9809 38.0824C49.5139 37.8435 50.2301 37.724 51.1296 37.724C52.029 37.724 52.7452 37.8734 53.2782 38.172C53.6779 38.3513 54.0776 38.7395 54.4774 39.3369C54.8771 39.9343 55.077 40.4719 55.077 40.9498V58.6022H65.5702V40.9498Z" fill="white"/>
</svg>
