<svg width="84" height="75" viewBox="0 0 84 75" fill="none" xmlns="http://www.w3.org/2000/svg">
<path id="Mail" fill-rule="evenodd" clip-rule="evenodd" d="M83.882 37.5C83.882 58.2105 65.1571 75 42.0591 75C18.961 75 0.236206 58.2105 0.236206 37.5C0.236206 16.7893 18.961 0 42.0591 0C65.1571 0 83.882 16.7893 83.882 37.5ZM21.1686 26.25C21.1686 24.1875 23.0297 22.5 25.33 22.5H58.7883C61.0886 22.5 62.9706 24.1875 62.9706 26.25V48.75C62.9706 50.8125 61.0886 52.5 58.7883 52.5H25.33C23.0297 52.5 21.1477 50.8125 21.1477 48.75L21.1686 26.25ZM42.0591 39.375L25.33 29.9999V48.75H58.7883V29.9999L42.0591 39.375ZM42.0591 35.625L25.33 26.25H58.7883L42.0591 35.625Z" fill="#FFFBFB"/>
</svg>
